<svg aria-hidden="true" style="position: absolute; width: 0; height: 0; overflow: hidden;" version="1.1" xmlns="http://www.w3.org/2000/svg" xmlns:xlink="http://www.w3.org/1999/xlink">
<defs>
<symbol id="icon-Burger" viewBox="0 0 46 32">
<path fill="none" stroke="#d41443" 
style="stroke: var(--color1, #d41443)" 
stroke-linejoin="miter" stroke-linecap="butt" 
stroke-miterlimit="4" stroke-width="2.2857" d="M0 2.286h45.714M0 16h45.714M0 29.714h45.714"></path>
</symbol>
<symbol id="icon-close" viewBox="0 0 32 32">
<path fill="none" stroke="#fff" style="stroke: var(--color2, #fff)" stroke-linejoin="miter" stroke-linecap="butt" stroke-miterlimit="4" stroke-width="2" d="M2.52 2l26.96 28M2 29.48l28-26.96"></path>
</symbol>
<symbol id="products-arrow.svg" viewBox="0 0 26 32">
<path fill="none" stroke="#d41443" style="stroke: var(--color1, #d41443)" stroke-linejoin="round" stroke-linecap="round" stroke-miterlimit="4" stroke-width="6.4" d="M3.542 3.2l16.826 12.8-16.826 12.8"></path>
</symbol>
<symbol id="icon-products-arrow" viewBox="0 0 32 32">
<path d="M2 18h22.34l-9.76 9.76c-0.78 0.78-0.78 2.060 0 2.84s2.040 0.78 2.82 0l13.18-13.18c0.361-0.361 0.585-0.859 0.585-1.41s-0.224-1.049-0.585-1.41l-0-0-13.16-13.2c-0.361-0.361-0.859-0.584-1.41-0.584-1.101 0-1.994 0.893-1.994 1.994 0 0.551 0.223 1.049 0.584 1.41v0l9.74 9.78h-22.34c-1.1 0-2 0.9-2 2s0.9 2 2 2z"></path>
</symbol>
</symbol>
</defs>
</svg>